<svg width="60" height="60" viewBox="0 0 60 60" fill="none" xmlns="http://www.w3.org/2000/svg">
<g clip-path="url(#clip0_2008_1391)">
<path d="M30 33.9375C32.4864 33.9375 34.871 32.9498 36.6291 31.1916C38.3873 29.4335 39.375 27.0489 39.375 24.5625C39.375 22.0761 38.3873 19.6915 36.6291 17.9334C34.871 16.1752 32.4864 15.1875 30 15.1875C27.5136 15.1875 25.129 16.1752 23.3709 17.9334C21.6127 19.6915 20.625 22.0761 20.625 24.5625C20.625 27.0489 21.6127 29.4335 23.3709 31.1916C25.129 32.9498 27.5136 33.9375 30 33.9375Z" fill="white" fill-opacity="0.9"/>
<path d="M3.75 3.75C2.75544 3.75 1.80161 4.14509 1.09835 4.84835C0.395088 5.55161 0 6.50544 0 7.5L0 48.75C0 49.7446 0.395088 50.6984 1.09835 51.4016C1.80161 52.1049 2.75544 52.5 3.75 52.5H5.625C6.12228 52.5 6.59919 52.3025 6.95083 51.9508C7.30246 51.5992 7.5 51.1223 7.5 50.625C7.5 50.1277 7.69754 49.6508 8.04918 49.2992C8.40081 48.9475 8.87772 48.75 9.375 48.75C9.87228 48.75 10.3492 48.9475 10.7008 49.2992C11.0525 49.6508 11.25 50.1277 11.25 50.625C11.25 51.1223 11.4475 51.5992 11.7992 51.9508C12.1508 52.3025 12.6277 52.5 13.125 52.5H46.875C47.3723 52.5 47.8492 52.3025 48.2008 51.9508C48.5525 51.5992 48.75 51.1223 48.75 50.625C48.75 50.1277 48.9475 49.6508 49.2992 49.2992C49.6508 48.9475 50.1277 48.75 50.625 48.75C51.1223 48.75 51.5992 48.9475 51.9508 49.2992C52.3025 49.6508 52.5 50.1277 52.5 50.625C52.5 51.1223 52.6975 51.5992 53.0492 51.9508C53.4008 52.3025 53.8777 52.5 54.375 52.5H56.25C57.2446 52.5 58.1984 52.1049 58.9016 51.4016C59.6049 50.6984 60 49.7446 60 48.75V11.25C60 10.2554 59.6049 9.30161 58.9016 8.59835C58.1984 7.89509 57.2446 7.5 56.25 7.5H25.1512L22.5 4.84875C21.7969 4.14544 20.8432 3.75021 19.8488 3.75H3.75ZM3.75 7.5H19.8488L22.5 10.1512C23.2031 10.8546 24.1568 11.2498 25.1512 11.25H56.25V48.75H55.9313C55.6251 47.885 55.112 47.108 54.4367 46.4868C53.7613 45.8655 52.9443 45.419 52.0567 45.186C51.1692 44.953 50.2381 44.9407 49.3448 45.1501C48.4514 45.3596 47.6228 45.7844 46.9313 46.3875C44.5688 42.0863 39.5775 37.5 30 37.5C20.4187 37.5 15.4275 42.09 13.0725 46.3875C12.381 45.7844 11.5524 45.3596 10.659 45.1501C9.76561 44.9407 8.83456 44.953 7.94703 45.186C7.0595 45.419 6.24244 45.8655 5.5671 46.4868C4.89175 47.108 4.37864 47.885 4.0725 48.75H3.75V7.5Z" fill="white" fill-opacity="0.9"/>
</g>
<defs>
<clipPath id="clip0_2008_1391">
<rect width="60" height="60" fill="white"/>
</clipPath>
</defs>
</svg>
