<svg width="60" height="60" viewBox="0 0 60 60" fill="none" xmlns="http://www.w3.org/2000/svg">
<path d="M39.375 26.25C39.375 25.7527 39.1775 25.2758 38.8258 24.9242C38.4742 24.5725 37.9973 24.375 37.5 24.375C37.0027 24.375 36.5258 24.5725 36.1742 24.9242C35.8225 25.2758 35.625 25.7527 35.625 26.25V31.875C35.625 32.3723 35.8225 32.8492 36.1742 33.2008C36.5258 33.5525 37.0027 33.75 37.5 33.75C37.9973 33.75 38.4742 33.5525 38.8258 33.2008C39.1775 32.8492 39.375 32.3723 39.375 31.875V26.25ZM30 24.375C30.4973 24.375 30.9742 24.5725 31.3258 24.9242C31.6775 25.2758 31.875 25.7527 31.875 26.25V31.875C31.875 32.3723 31.6775 32.8492 31.3258 33.2008C30.9742 33.5525 30.4973 33.75 30 33.75C29.5027 33.75 29.0258 33.5525 28.6742 33.2008C28.3225 32.8492 28.125 32.3723 28.125 31.875V26.25C28.125 25.7527 28.3225 25.2758 28.6742 24.9242C29.0258 24.5725 29.5027 24.375 30 24.375ZM24.375 26.25C24.375 25.7527 24.1775 25.2758 23.8258 24.9242C23.4742 24.5725 22.9973 24.375 22.5 24.375C22.0027 24.375 21.5258 24.5725 21.1742 24.9242C20.8225 25.2758 20.625 25.7527 20.625 26.25V31.875C20.625 32.3723 20.8225 32.8492 21.1742 33.2008C21.5258 33.5525 22.0027 33.75 22.5 33.75C22.9973 33.75 23.4742 33.5525 23.8258 33.2008C24.1775 32.8492 24.375 32.3723 24.375 31.875V26.25ZM15 37.5C15.4973 37.5 15.9742 37.6975 16.3258 38.0492C16.6775 38.4008 16.875 38.8777 16.875 39.375V45C16.875 45.4973 16.6775 45.9742 16.3258 46.3258C15.9742 46.6775 15.4973 46.875 15 46.875C14.5027 46.875 14.0258 46.6775 13.6742 46.3258C13.3225 45.9742 13.125 45.4973 13.125 45V39.375C13.125 38.8777 13.3225 38.4008 13.6742 38.0492C14.0258 37.6975 14.5027 37.5 15 37.5ZM46.875 39.375C46.875 38.8777 46.6775 38.4008 46.3258 38.0492C45.9742 37.6975 45.4973 37.5 45 37.5C44.5027 37.5 44.0258 37.6975 43.6742 38.0492C43.3225 38.4008 43.125 38.8777 43.125 39.375V45C43.125 45.4973 43.3225 45.9742 43.6742 46.3258C44.0258 46.6775 44.5027 46.875 45 46.875C45.4973 46.875 45.9742 46.6775 46.3258 46.3258C46.6775 45.9742 46.875 45.4973 46.875 45V39.375ZM30 3.75H38.7506C39.4406 3.75 40.0013 4.30875 40.0013 5.00063V9.99938C40.0013 10.3311 39.8695 10.6492 39.6349 10.8837C39.4004 11.1182 39.0823 11.25 38.7506 11.25H31.875V13.2281C40.3125 14.16 46.875 21.3131 46.875 30H50.625C52.1168 30 53.5476 30.5926 54.6025 31.6475C55.6574 32.7024 56.25 34.1332 56.25 35.625V52.5C56.25 52.9973 56.0525 53.4742 55.7008 53.8258C55.3492 54.1775 54.8723 54.375 54.375 54.375H5.625C5.12772 54.375 4.65081 54.1775 4.29917 53.8258C3.94754 53.4742 3.75 52.9973 3.75 52.5V35.625C3.75 34.1332 4.34263 32.7024 5.39752 31.6475C6.45242 30.5926 7.88316 30 9.375 30H13.125C13.125 21.3131 19.6875 14.16 28.125 13.2281V5.625C28.125 5.12772 28.3225 4.65081 28.6742 4.29917C29.0258 3.94754 29.5027 3.75 30 3.75ZM30 16.875C26.519 16.875 23.1806 18.2578 20.7192 20.7192C18.2578 23.1806 16.875 26.519 16.875 30V31.875C16.875 32.3723 16.6775 32.8492 16.3258 33.2008C15.9742 33.5525 15.4973 33.75 15 33.75H9.375C8.87772 33.75 8.40081 33.9475 8.04918 34.2992C7.69754 34.6508 7.5 35.1277 7.5 35.625V50.625H23.4375V45C23.4375 44.5027 23.635 44.0258 23.9867 43.6742C24.3383 43.3225 24.8152 43.125 25.3125 43.125H34.6875C35.1848 43.125 35.6617 43.3225 36.0133 43.6742C36.365 44.0258 36.5625 44.5027 36.5625 45V50.625H52.5V35.625C52.5 35.1277 52.3025 34.6508 51.9508 34.2992C51.5992 33.9475 51.1223 33.75 50.625 33.75H45C44.5027 33.75 44.0258 33.5525 43.6742 33.2008C43.3225 32.8492 43.125 32.3723 43.125 31.875V30C43.125 26.519 41.7422 23.1806 39.2808 20.7192C36.8194 18.2578 33.481 16.875 30 16.875ZM32.8125 46.875H27.1875V50.625H32.8125V46.875Z" fill="white" fill-opacity="0.95"/>
</svg>
