<svg width="190" height="67" viewBox="0 0 190 67" fill="none" xmlns="http://www.w3.org/2000/svg">
<g filter="url(#filter0_d_1876_195)">
<path d="M22.4279 34H19.6417L19.6593 31.9434H22.4279C23.1193 31.9434 23.7023 31.7881 24.1769 31.4775C24.6515 31.1611 25.0089 30.7012 25.2491 30.0977C25.4952 29.4941 25.6183 28.7646 25.6183 27.9092V27.2852C25.6183 26.6289 25.548 26.0518 25.4073 25.5537C25.2726 25.0557 25.0704 24.6367 24.8009 24.2969C24.5314 23.957 24.2003 23.7021 23.8077 23.5322C23.4152 23.3564 22.964 23.2686 22.4542 23.2686H19.589V21.2031H22.4542C23.3097 21.2031 24.0919 21.3496 24.8009 21.6426C25.5157 21.9297 26.1339 22.3428 26.6554 22.8818C27.1769 23.4209 27.5782 24.0654 27.8595 24.8154C28.1466 25.5596 28.2902 26.3887 28.2902 27.3027V27.9092C28.2902 28.8174 28.1466 29.6465 27.8595 30.3965C27.5782 31.1465 27.1769 31.791 26.6554 32.3301C26.1398 32.8633 25.5216 33.2764 24.8009 33.5693C24.0861 33.8564 23.295 34 22.4279 34ZM21.1359 21.2031V34H18.4991V21.2031H21.1359ZM31.5699 21.2031V34H28.942V21.2031H31.5699ZM42.7422 27.3115V32.3828C42.543 32.623 42.2354 32.8838 41.8193 33.165C41.4033 33.4404 40.8672 33.6777 40.2109 33.877C39.5547 34.0762 38.7607 34.1758 37.8291 34.1758C37.0029 34.1758 36.25 34.041 35.5703 33.7715C34.8906 33.4961 34.3047 33.0947 33.8125 32.5674C33.3262 32.04 32.9512 31.3955 32.6875 30.6338C32.4238 29.8662 32.292 28.9902 32.292 28.0059V27.2061C32.292 26.2217 32.418 25.3457 32.6699 24.5781C32.9277 23.8105 33.294 23.1631 33.7686 22.6357C34.2432 22.1084 34.8086 21.707 35.4648 21.4316C36.1211 21.1562 36.8506 21.0186 37.6533 21.0186C38.7666 21.0186 39.6807 21.2002 40.3955 21.5635C41.1104 21.9209 41.6553 22.4189 42.0303 23.0576C42.4111 23.6904 42.6455 24.417 42.7334 25.2373H40.1758C40.1113 24.8037 39.9883 24.4258 39.8066 24.1035C39.625 23.7812 39.3643 23.5293 39.0244 23.3477C38.6904 23.166 38.2568 23.0752 37.7236 23.0752C37.2842 23.0752 36.8916 23.166 36.5459 23.3477C36.2061 23.5234 35.919 23.7842 35.6846 24.1299C35.4502 24.4756 35.2715 24.9033 35.1484 25.4131C35.0254 25.9229 34.9639 26.5146 34.9639 27.1885V28.0059C34.9639 28.6738 35.0283 29.2656 35.1572 29.7812C35.2861 30.291 35.4766 30.7217 35.7285 31.0732C35.9863 31.4189 36.3027 31.6797 36.6777 31.8555C37.0527 32.0312 37.4893 32.1191 37.9873 32.1191C38.4033 32.1191 38.749 32.084 39.0244 32.0137C39.3057 31.9434 39.5313 31.8584 39.7012 31.7588C39.877 31.6533 40.0117 31.5537 40.1055 31.46V29.1924H37.6973V27.3115H42.7422ZM46.2329 21.2031V34H43.6049V21.2031H46.2329ZM52.7206 21.2031V34H50.0927V21.2031H52.7206ZM56.6581 21.2031V23.2686H46.2167V21.2031H56.6581ZM60.9749 23.3916L57.4945 34H54.6907L59.4456 21.2031H61.2298L60.9749 23.3916ZM63.8665 34L60.3773 23.3916L60.096 21.2031H61.8978L66.679 34H63.8665ZM63.7083 29.2363V31.3018H56.9495V29.2363H63.7083ZM74.6521 31.9434V34H68.2097V31.9434H74.6521ZM69.0623 21.2031V34H66.4256V21.2031H69.0623Z" fill="#121127" fill-opacity="0.8"/>
<path d="M0.275818 8H25.3566L11.7712 22.5111L0.275818 33.6079V8Z" fill="#0773C4"/>
<path d="M14.9062 19.0967L10.6044 52.4283L6.21019 42.2625L0.19112 33.3587L14.9062 19.0967Z" fill="#22376E"/>
</g>
<path d="M86.3608 25V14.8182H88.1605V18.6264H88.2351C88.3279 18.4408 88.4588 18.2436 88.6279 18.0348C88.7969 17.8227 89.0256 17.642 89.314 17.4929C89.6023 17.3404 89.9702 17.2642 90.4176 17.2642C91.0076 17.2642 91.5396 17.415 92.0135 17.7166C92.4908 18.0149 92.8686 18.4574 93.1471 19.044C93.4288 19.6274 93.5696 20.3433 93.5696 21.1918C93.5696 22.0303 93.4321 22.7429 93.157 23.3295C92.8819 23.9162 92.5074 24.3636 92.0334 24.6719C91.5595 24.9801 91.0225 25.1342 90.4226 25.1342C89.9851 25.1342 89.6222 25.0613 89.3338 24.9155C89.0455 24.7696 88.8135 24.594 88.6378 24.3885C88.4655 24.1797 88.3312 23.9825 88.2351 23.7969H88.1307V25H86.3608ZM88.1257 21.1818C88.1257 21.6757 88.1953 22.1082 88.3346 22.4794C88.4771 22.8506 88.6809 23.1406 88.9461 23.3494C89.2145 23.5549 89.5393 23.6577 89.9205 23.6577C90.3182 23.6577 90.6513 23.5516 90.9198 23.3395C91.1882 23.1241 91.3904 22.8307 91.5263 22.4595C91.6655 22.085 91.7351 21.6591 91.7351 21.1818C91.7351 20.7079 91.6672 20.2869 91.5313 19.919C91.3954 19.5511 91.1932 19.2628 90.9247 19.054C90.6563 18.8452 90.3215 18.7408 89.9205 18.7408C89.536 18.7408 89.2096 18.8419 88.9411 19.044C88.6726 19.2462 88.4688 19.5296 88.3296 19.8942C88.1937 20.2588 88.1257 20.688 88.1257 21.1818ZM95.0996 25V17.3636H96.8994V25H95.0996ZM96.0045 16.2798C95.7194 16.2798 95.4742 16.1854 95.2687 15.9964C95.0632 15.8042 94.9604 15.5739 94.9604 15.3054C94.9604 15.0336 95.0632 14.8033 95.2687 14.6143C95.4742 14.4221 95.7194 14.326 96.0045 14.326C96.2928 14.326 96.5381 14.4221 96.7403 14.6143C96.9458 14.8033 97.0485 15.0336 97.0485 15.3054C97.0485 15.5739 96.9458 15.8042 96.7403 15.9964C96.5381 16.1854 96.2928 16.2798 96.0045 16.2798ZM98.75 25V17.3636H100.495V18.6364H100.575C100.714 18.1955 100.952 17.8558 101.291 17.6172C101.629 17.3752 102.018 17.2543 102.459 17.2543C102.664 17.2543 102.853 17.2791 103.026 17.3288C103.198 17.3786 103.35 17.4465 103.483 17.5327L102.926 19.0241C102.83 18.9777 102.724 18.9396 102.608 18.9098C102.492 18.88 102.361 18.8651 102.215 18.8651C101.904 18.8651 101.622 18.9347 101.37 19.0739C101.118 19.2131 100.918 19.407 100.768 19.6555C100.623 19.9008 100.55 20.1858 100.55 20.5107V25H98.75ZM108.702 17.3636V18.7557H104.312V17.3636H108.702ZM105.396 15.5341H107.196V22.7031C107.196 22.9451 107.232 23.1307 107.305 23.2599C107.381 23.3859 107.481 23.4721 107.603 23.5185C107.726 23.5649 107.862 23.5881 108.011 23.5881C108.124 23.5881 108.226 23.5798 108.319 23.5632C108.415 23.5466 108.488 23.5317 108.538 23.5185L108.841 24.9254C108.745 24.9586 108.607 24.995 108.428 25.0348C108.253 25.0746 108.037 25.0978 107.782 25.1044C107.331 25.1177 106.925 25.0497 106.564 24.9006C106.203 24.7481 105.916 24.5128 105.704 24.1946C105.495 23.8764 105.392 23.4787 105.396 23.0014V15.5341ZM112.171 20.5256V25H110.371V14.8182H112.131V18.6612H112.221C112.4 18.2304 112.676 17.8906 113.051 17.642C113.429 17.3902 113.909 17.2642 114.493 17.2642C115.023 17.2642 115.485 17.3752 115.88 17.5973C116.274 17.8194 116.579 18.1442 116.794 18.5717C117.013 18.9993 117.123 19.5213 117.123 20.1378V25H115.323V20.4162C115.323 19.9025 115.19 19.5031 114.925 19.218C114.663 18.9297 114.295 18.7855 113.821 18.7855C113.503 18.7855 113.218 18.8551 112.966 18.9943C112.718 19.1302 112.522 19.3274 112.38 19.5859C112.24 19.8445 112.171 20.1577 112.171 20.5256ZM123.113 14.3409L119.832 26.5312H118.256L121.537 14.3409H123.113ZM127.096 25.1342C126.496 25.1342 125.959 24.9801 125.485 24.6719C125.011 24.3636 124.636 23.9162 124.361 23.3295C124.086 22.7429 123.949 22.0303 123.949 21.1918C123.949 20.3433 124.088 19.6274 124.366 19.044C124.648 18.4574 125.027 18.0149 125.505 17.7166C125.982 17.415 126.514 17.2642 127.101 17.2642C127.548 17.2642 127.916 17.3404 128.204 17.4929C128.493 17.642 128.721 17.8227 128.89 18.0348C129.059 18.2436 129.19 18.4408 129.283 18.6264H129.358V14.8182H131.162V25H129.392V23.7969H129.283C129.19 23.9825 129.056 24.1797 128.88 24.3885C128.705 24.594 128.473 24.7696 128.184 24.9155C127.896 25.0613 127.533 25.1342 127.096 25.1342ZM127.598 23.6577C127.979 23.6577 128.304 23.5549 128.572 23.3494C128.841 23.1406 129.044 22.8506 129.184 22.4794C129.323 22.1082 129.392 21.6757 129.392 21.1818C129.392 20.688 129.323 20.2588 129.184 19.8942C129.048 19.5296 128.846 19.2462 128.577 19.044C128.312 18.8419 127.985 18.7408 127.598 18.7408C127.197 18.7408 126.862 18.8452 126.593 19.054C126.325 19.2628 126.123 19.5511 125.987 19.919C125.851 20.2869 125.783 20.7079 125.783 21.1818C125.783 21.6591 125.851 22.085 125.987 22.4595C126.126 22.8307 126.33 23.1241 126.598 23.3395C126.87 23.5516 127.203 23.6577 127.598 23.6577ZM136.461 25.1491C135.695 25.1491 135.034 24.9901 134.477 24.6719C133.924 24.3504 133.498 23.8963 133.199 23.3097C132.901 22.7197 132.752 22.0253 132.752 21.2266C132.752 20.4411 132.901 19.7517 133.199 19.1584C133.501 18.5618 133.922 18.0978 134.462 17.7663C135.002 17.4316 135.637 17.2642 136.366 17.2642C136.837 17.2642 137.281 17.3404 137.699 17.4929C138.12 17.642 138.491 17.8741 138.812 18.1889C139.137 18.5038 139.392 18.9048 139.578 19.392C139.764 19.8759 139.856 20.4527 139.856 21.1222V21.674H133.597V20.4609H138.131C138.128 20.1162 138.053 19.8097 137.908 19.5412C137.762 19.2694 137.558 19.0556 137.296 18.8999C137.037 18.7441 136.736 18.6662 136.391 18.6662C136.023 18.6662 135.7 18.7557 135.422 18.9347C135.143 19.1103 134.926 19.3423 134.77 19.6307C134.618 19.9157 134.54 20.2289 134.537 20.5703V21.6293C134.537 22.0734 134.618 22.4545 134.78 22.7727C134.943 23.0876 135.17 23.3295 135.462 23.4986C135.753 23.6643 136.095 23.7472 136.486 23.7472C136.747 23.7472 136.984 23.7107 137.197 23.6378C137.409 23.5616 137.593 23.4505 137.748 23.3047C137.904 23.1589 138.022 22.9782 138.101 22.7628L139.782 22.9517C139.676 23.3958 139.474 23.7836 139.175 24.1151C138.88 24.4432 138.502 24.6984 138.042 24.8807C137.581 25.0597 137.054 25.1491 136.461 25.1491ZM144.213 25.1342C143.613 25.1342 143.076 24.9801 142.602 24.6719C142.128 24.3636 141.753 23.9162 141.478 23.3295C141.203 22.7429 141.066 22.0303 141.066 21.1918C141.066 20.3433 141.205 19.6274 141.483 19.044C141.765 18.4574 142.145 18.0149 142.622 17.7166C143.099 17.415 143.631 17.2642 144.218 17.2642C144.665 17.2642 145.033 17.3404 145.321 17.4929C145.61 17.642 145.838 17.8227 146.007 18.0348C146.177 18.2436 146.307 18.4408 146.4 18.6264H146.475V17.3636H148.28V25H146.51V23.7969H146.4C146.307 23.9825 146.173 24.1797 145.998 24.3885C145.822 24.594 145.59 24.7696 145.302 24.9155C145.013 25.0613 144.65 25.1342 144.213 25.1342ZM144.715 23.6577C145.096 23.6577 145.421 23.5549 145.689 23.3494C145.958 23.1406 146.162 22.8506 146.301 22.4794C146.44 22.1082 146.51 21.6757 146.51 21.1818C146.51 20.688 146.44 20.2588 146.301 19.8942C146.165 19.5296 145.963 19.2462 145.694 19.044C145.429 18.8419 145.103 18.7408 144.715 18.7408C144.314 18.7408 143.979 18.8452 143.711 19.054C143.442 19.2628 143.24 19.5511 143.104 19.919C142.968 20.2869 142.9 20.7079 142.9 21.1818C142.9 21.6591 142.968 22.085 143.104 22.4595C143.243 22.8307 143.447 23.1241 143.716 23.3395C143.987 23.5516 144.32 23.6577 144.715 23.6577ZM154.011 17.3636V18.7557H149.621V17.3636H154.011ZM150.704 15.5341H152.504V22.7031C152.504 22.9451 152.541 23.1307 152.613 23.2599C152.69 23.3859 152.789 23.4721 152.912 23.5185C153.034 23.5649 153.17 23.5881 153.319 23.5881C153.432 23.5881 153.535 23.5798 153.628 23.5632C153.724 23.5466 153.797 23.5317 153.846 23.5185L154.15 24.9254C154.054 24.9586 153.916 24.995 153.737 25.0348C153.561 25.0746 153.346 25.0978 153.091 25.1044C152.64 25.1177 152.234 25.0497 151.873 24.9006C151.511 24.7481 151.225 24.5128 151.013 24.1946C150.804 23.8764 150.701 23.4787 150.704 23.0014V15.5341ZM157.479 20.5256V25H155.68V14.8182H157.44V18.6612H157.529C157.708 18.2304 157.985 17.8906 158.359 17.642C158.737 17.3902 159.218 17.2642 159.801 17.2642C160.331 17.2642 160.794 17.3752 161.188 17.5973C161.583 17.8194 161.888 18.1442 162.103 18.5717C162.322 18.9993 162.431 19.5213 162.431 20.1378V25H160.631V20.4162C160.631 19.9025 160.499 19.5031 160.234 19.218C159.972 18.9297 159.604 18.7855 159.13 18.7855C158.812 18.7855 158.527 18.8551 158.275 18.9943C158.026 19.1302 157.831 19.3274 157.688 19.5859C157.549 19.8445 157.479 20.1577 157.479 20.5256Z" fill="#121127" fill-opacity="0.8"/>
<path d="M92.3168 35.3821L90.6762 35.5611C90.6298 35.3954 90.5486 35.2396 90.4326 35.0938C90.3199 34.9479 90.1674 34.8303 89.9752 34.7408C89.7829 34.6513 89.5476 34.6065 89.2692 34.6065C88.8947 34.6065 88.5798 34.6877 88.3246 34.8501C88.0727 35.0125 87.9484 35.223 87.9517 35.4815C87.9484 35.7036 88.0296 35.8842 88.1953 36.0234C88.3644 36.1626 88.6428 36.277 89.0306 36.3665L90.3331 36.6449C91.0557 36.8007 91.5926 37.0476 91.9439 37.3857C92.2986 37.7237 92.4775 38.1662 92.4809 38.7131C92.4775 39.1937 92.3367 39.6179 92.0583 39.9858C91.7832 40.3504 91.4004 40.6354 90.9098 40.8409C90.4193 41.0464 89.8559 41.1491 89.2195 41.1491C88.2848 41.1491 87.5325 40.9536 86.9624 40.5625C86.3923 40.1681 86.0526 39.6196 85.9432 38.9169L87.6982 38.7479C87.7777 39.0926 87.9468 39.3527 88.2053 39.5284C88.4638 39.7041 88.8002 39.7919 89.2145 39.7919C89.6421 39.7919 89.9851 39.7041 90.2436 39.5284C90.5055 39.3527 90.6364 39.1357 90.6364 38.8771C90.6364 38.6584 90.5519 38.4777 90.3828 38.3352C90.2171 38.1927 89.9586 38.0833 89.6073 38.0071L88.3047 37.7337C87.5722 37.5812 87.0303 37.3243 86.679 36.9631C86.3277 36.5985 86.1537 36.1378 86.157 35.581C86.1537 35.1103 86.2813 34.7027 86.5398 34.358C86.8016 34.0099 87.1646 33.7415 87.6286 33.5526C88.0959 33.3603 88.6345 33.2642 89.2444 33.2642C90.1392 33.2642 90.8435 33.4548 91.3573 33.8359C91.8743 34.2171 92.1942 34.7325 92.3168 35.3821ZM97.7781 33.3636V34.7557H93.3882V33.3636H97.7781ZM94.472 31.5341H96.2717V38.7031C96.2717 38.9451 96.3082 39.1307 96.3811 39.2599C96.4573 39.3859 96.5567 39.4721 96.6794 39.5185C96.802 39.5649 96.9379 39.5881 97.087 39.5881C97.1997 39.5881 97.3025 39.5798 97.3953 39.5632C97.4914 39.5466 97.5643 39.5317 97.614 39.5185L97.9173 40.9254C97.8212 40.9586 97.6836 40.995 97.5046 41.0348C97.329 41.0746 97.1136 41.0978 96.8583 41.1044C96.4076 41.1177 96.0016 41.0497 95.6403 40.9006C95.279 40.7481 94.9923 40.5128 94.7802 40.1946C94.5714 39.8764 94.4687 39.4787 94.472 39.0014V31.5341ZM102.035 41.1342C101.435 41.1342 100.898 40.9801 100.424 40.6719C99.9503 40.3636 99.5757 39.9162 99.3006 39.3295C99.0255 38.7429 98.888 38.0303 98.888 37.1918C98.888 36.3433 99.0272 35.6274 99.3056 35.044C99.5873 34.4574 99.9668 34.0149 100.444 33.7166C100.921 33.415 101.453 33.2642 102.04 33.2642C102.487 33.2642 102.855 33.3404 103.144 33.4929C103.432 33.642 103.661 33.8227 103.83 34.0348C103.999 34.2436 104.13 34.4408 104.223 34.6264H104.297V33.3636H106.102V41H104.332V39.7969H104.223C104.13 39.9825 103.995 40.1797 103.82 40.3885C103.644 40.594 103.412 40.7696 103.124 40.9155C102.835 41.0613 102.473 41.1342 102.035 41.1342ZM102.537 39.6577C102.918 39.6577 103.243 39.5549 103.512 39.3494C103.78 39.1406 103.984 38.8506 104.123 38.4794C104.262 38.1082 104.332 37.6757 104.332 37.1818C104.332 36.688 104.262 36.2588 104.123 35.8942C103.987 35.5296 103.785 35.2462 103.517 35.044C103.251 34.8419 102.925 34.7408 102.537 34.7408C102.136 34.7408 101.801 34.8452 101.533 35.054C101.264 35.2628 101.062 35.5511 100.926 35.919C100.79 36.2869 100.723 36.7079 100.723 37.1818C100.723 37.6591 100.79 38.085 100.926 38.4595C101.066 38.8307 101.269 39.1241 101.538 39.3395C101.81 39.5516 102.143 39.6577 102.537 39.6577ZM111.833 33.3636V34.7557H107.443V33.3636H111.833ZM108.527 31.5341H110.326V38.7031C110.326 38.9451 110.363 39.1307 110.436 39.2599C110.512 39.3859 110.611 39.4721 110.734 39.5185C110.857 39.5649 110.993 39.5881 111.142 39.5881C111.254 39.5881 111.357 39.5798 111.45 39.5632C111.546 39.5466 111.619 39.5317 111.669 39.5185L111.972 40.9254C111.876 40.9586 111.738 40.995 111.559 41.0348C111.384 41.0746 111.168 41.0978 110.913 41.1044C110.462 41.1177 110.056 41.0497 109.695 40.9006C109.334 40.7481 109.047 40.5128 108.835 40.1946C108.626 39.8764 108.523 39.4787 108.527 39.0014V31.5341ZM113.338 41V33.3636H115.138V41H113.338ZM114.243 32.2798C113.958 32.2798 113.712 32.1854 113.507 31.9964C113.301 31.8042 113.199 31.5739 113.199 31.3054C113.199 31.0336 113.301 30.8033 113.507 30.6143C113.712 30.4221 113.958 30.326 114.243 30.326C114.531 30.326 114.776 30.4221 114.979 30.6143C115.184 30.8033 115.287 31.0336 115.287 31.3054C115.287 31.5739 115.184 31.8042 114.979 31.9964C114.776 32.1854 114.531 32.2798 114.243 32.2798ZM123.024 35.3821L121.383 35.5611C121.337 35.3954 121.256 35.2396 121.14 35.0938C121.027 34.9479 120.874 34.8303 120.682 34.7408C120.49 34.6513 120.255 34.6065 119.976 34.6065C119.602 34.6065 119.287 34.6877 119.032 34.8501C118.78 35.0125 118.655 35.223 118.659 35.4815C118.655 35.7036 118.737 35.8842 118.902 36.0234C119.071 36.1626 119.35 36.277 119.738 36.3665L121.04 36.6449C121.763 36.8007 122.3 37.0476 122.651 37.3857C123.006 37.7237 123.185 38.1662 123.188 38.7131C123.185 39.1937 123.044 39.6179 122.765 39.9858C122.49 40.3504 122.107 40.6354 121.617 40.8409C121.126 41.0464 120.563 41.1491 119.927 41.1491C118.992 41.1491 118.239 40.9536 117.669 40.5625C117.099 40.1681 116.76 39.6196 116.65 38.9169L118.405 38.7479C118.485 39.0926 118.654 39.3527 118.912 39.5284C119.171 39.7041 119.507 39.7919 119.922 39.7919C120.349 39.7919 120.692 39.7041 120.951 39.5284C121.213 39.3527 121.343 39.1357 121.343 38.8771C121.343 38.6584 121.259 38.4777 121.09 38.3352C120.924 38.1927 120.666 38.0833 120.314 38.0071L119.012 37.7337C118.279 37.5812 117.737 37.3243 117.386 36.9631C117.035 36.5985 116.861 36.1378 116.864 35.581C116.861 35.1103 116.988 34.7027 117.247 34.358C117.509 34.0099 117.872 33.7415 118.336 33.5526C118.803 33.3603 119.342 33.2642 119.951 33.2642C120.846 33.2642 121.551 33.4548 122.064 33.8359C122.581 34.2171 122.901 34.7325 123.024 35.3821ZM128.485 33.3636V34.7557H124.095V33.3636H128.485ZM125.179 31.5341H126.979V38.7031C126.979 38.9451 127.015 39.1307 127.088 39.2599C127.164 39.3859 127.264 39.4721 127.386 39.5185C127.509 39.5649 127.645 39.5881 127.794 39.5881C127.907 39.5881 128.01 39.5798 128.102 39.5632C128.198 39.5466 128.271 39.5317 128.321 39.5185L128.624 40.9254C128.528 40.9586 128.391 40.995 128.212 41.0348C128.036 41.0746 127.821 41.0978 127.565 41.1044C127.115 41.1177 126.709 41.0497 126.347 40.9006C125.986 40.7481 125.699 40.5128 125.487 40.1946C125.278 39.8764 125.176 39.4787 125.179 39.0014V31.5341ZM129.99 41V33.3636H131.79V41H129.99ZM130.895 32.2798C130.61 32.2798 130.365 32.1854 130.159 31.9964C129.954 31.8042 129.851 31.5739 129.851 31.3054C129.851 31.0336 129.954 30.8033 130.159 30.6143C130.365 30.4221 130.61 30.326 130.895 30.326C131.183 30.326 131.429 30.4221 131.631 30.6143C131.836 30.8033 131.939 31.0336 131.939 31.3054C131.939 31.5739 131.836 31.8042 131.631 31.9964C131.429 32.1854 131.183 32.2798 130.895 32.2798ZM136.972 41.1491C136.209 41.1491 135.555 40.9818 135.008 40.647C134.464 40.3123 134.045 39.8499 133.75 39.2599C133.458 38.6667 133.313 37.9839 133.313 37.2116C133.313 36.4361 133.462 35.7517 133.76 35.1584C134.058 34.5618 134.479 34.0978 135.023 33.7663C135.57 33.4316 136.216 33.2642 136.962 33.2642C137.581 33.2642 138.13 33.3786 138.607 33.6072C139.088 33.8326 139.471 34.1525 139.756 34.5668C140.041 34.9777 140.203 35.4583 140.243 36.0085H138.523C138.453 35.6406 138.287 35.334 138.026 35.0888C137.767 34.8402 137.421 34.7159 136.987 34.7159C136.619 34.7159 136.295 34.8153 136.017 35.0142C135.739 35.2098 135.522 35.4915 135.366 35.8594C135.213 36.2273 135.137 36.6681 135.137 37.1818C135.137 37.7022 135.213 38.1496 135.366 38.5241C135.518 38.8954 135.732 39.1821 136.007 39.3842C136.286 39.5831 136.612 39.6825 136.987 39.6825C137.252 39.6825 137.489 39.6328 137.697 39.5334C137.91 39.4306 138.087 39.2831 138.229 39.0909C138.372 38.8987 138.47 38.665 138.523 38.3899H140.243C140.2 38.9302 140.041 39.4091 139.766 39.8267C139.491 40.241 139.116 40.5658 138.642 40.8011C138.168 41.0331 137.611 41.1491 136.972 41.1491ZM144.555 41.1342C143.955 41.1342 143.418 40.9801 142.944 40.6719C142.47 40.3636 142.095 39.9162 141.82 39.3295C141.545 38.7429 141.408 38.0303 141.408 37.1918C141.408 36.3433 141.547 35.6274 141.825 35.044C142.107 34.4574 142.486 34.0149 142.964 33.7166C143.441 33.415 143.973 33.2642 144.56 33.2642C145.007 33.2642 145.375 33.3404 145.663 33.4929C145.952 33.642 146.18 33.8227 146.349 34.0348C146.518 34.2436 146.649 34.4408 146.742 34.6264H146.817V33.3636H148.621V41H146.851V39.7969H146.742C146.649 39.9825 146.515 40.1797 146.339 40.3885C146.164 40.594 145.932 40.7696 145.643 40.9155C145.355 41.0613 144.992 41.1342 144.555 41.1342ZM145.057 39.6577C145.438 39.6577 145.763 39.5549 146.031 39.3494C146.3 39.1406 146.503 38.8506 146.643 38.4794C146.782 38.1082 146.851 37.6757 146.851 37.1818C146.851 36.688 146.782 36.2588 146.643 35.8942C146.507 35.5296 146.305 35.2462 146.036 35.044C145.771 34.8419 145.444 34.7408 145.057 34.7408C144.656 34.7408 144.321 34.8452 144.052 35.054C143.784 35.2628 143.582 35.5511 143.446 35.919C143.31 36.2869 143.242 36.7079 143.242 37.1818C143.242 37.6591 143.31 38.085 143.446 38.4595C143.585 38.8307 143.789 39.1241 144.057 39.3395C144.329 39.5516 144.662 39.6577 145.057 39.6577ZM150.539 30.8182H152.339V38.8125C152.339 39.0975 152.382 39.3014 152.468 39.424C152.554 39.5466 152.707 39.6046 152.925 39.598C153.045 39.5947 153.134 39.5881 153.194 39.5781C153.257 39.5649 153.313 39.5516 153.363 39.5384L153.661 40.9006C153.555 40.9337 153.423 40.9652 153.264 40.995C153.108 41.0249 152.916 41.0431 152.687 41.0497C151.958 41.0696 151.417 40.9171 151.066 40.5923C150.715 40.2675 150.539 39.772 150.539 39.1058V30.8182ZM160.865 41.1342C160.265 41.1342 159.728 40.9801 159.254 40.6719C158.78 40.3636 158.406 39.9162 158.131 39.3295C157.856 38.7429 157.718 38.0303 157.718 37.1918C157.718 36.3433 157.857 35.6274 158.136 35.044C158.417 34.4574 158.797 34.0149 159.274 33.7166C159.751 33.415 160.283 33.2642 160.87 33.2642C161.318 33.2642 161.685 33.3404 161.974 33.4929C162.262 33.642 162.491 33.8227 162.66 34.0348C162.829 34.2436 162.96 34.4408 163.053 34.6264H163.127V30.8182H164.932V41H163.162V39.7969H163.053C162.96 39.9825 162.826 40.1797 162.65 40.3885C162.474 40.594 162.242 40.7696 161.954 40.9155C161.666 41.0613 161.303 41.1342 160.865 41.1342ZM161.367 39.6577C161.748 39.6577 162.073 39.5549 162.342 39.3494C162.61 39.1406 162.814 38.8506 162.953 38.4794C163.092 38.1082 163.162 37.6757 163.162 37.1818C163.162 36.688 163.092 36.2588 162.953 35.8942C162.817 35.5296 162.615 35.2462 162.347 35.044C162.081 34.8419 161.755 34.7408 161.367 34.7408C160.966 34.7408 160.631 34.8452 160.363 35.054C160.094 35.2628 159.892 35.5511 159.756 35.919C159.621 36.2869 159.553 36.7079 159.553 37.1818C159.553 37.6591 159.621 38.085 159.756 38.4595C159.896 38.8307 160.099 39.1241 160.368 39.3395C160.64 39.5516 160.973 39.6577 161.367 39.6577ZM169.683 41.1342C169.084 41.1342 168.547 40.9801 168.073 40.6719C167.599 40.3636 167.224 39.9162 166.949 39.3295C166.674 38.7429 166.536 38.0303 166.536 37.1918C166.536 36.3433 166.676 35.6274 166.954 35.044C167.236 34.4574 167.615 34.0149 168.093 33.7166C168.57 33.415 169.102 33.2642 169.688 33.2642C170.136 33.2642 170.504 33.3404 170.792 33.4929C171.08 33.642 171.309 33.8227 171.478 34.0348C171.647 34.2436 171.778 34.4408 171.871 34.6264H171.946V33.3636H173.75V41H171.98V39.7969H171.871C171.778 39.9825 171.644 40.1797 171.468 40.3885C171.293 40.594 171.061 40.7696 170.772 40.9155C170.484 41.0613 170.121 41.1342 169.683 41.1342ZM170.186 39.6577C170.567 39.6577 170.892 39.5549 171.16 39.3494C171.428 39.1406 171.632 38.8506 171.772 38.4794C171.911 38.1082 171.98 37.6757 171.98 37.1818C171.98 36.688 171.911 36.2588 171.772 35.8942C171.636 35.5296 171.433 35.2462 171.165 35.044C170.9 34.8419 170.573 34.7408 170.186 34.7408C169.785 34.7408 169.45 34.8452 169.181 35.054C168.913 35.2628 168.711 35.5511 168.575 35.919C168.439 36.2869 168.371 36.7079 168.371 37.1818C168.371 37.6591 168.439 38.085 168.575 38.4595C168.714 38.8307 168.918 39.1241 169.186 39.3395C169.458 39.5516 169.791 39.6577 170.186 39.6577ZM179.481 33.3636V34.7557H175.091V33.3636H179.481ZM176.175 31.5341H177.975V38.7031C177.975 38.9451 178.011 39.1307 178.084 39.2599C178.16 39.3859 178.26 39.4721 178.382 39.5185C178.505 39.5649 178.641 39.5881 178.79 39.5881C178.903 39.5881 179.006 39.5798 179.098 39.5632C179.195 39.5466 179.267 39.5317 179.317 39.5185L179.62 40.9254C179.524 40.9586 179.387 40.995 179.208 41.0348C179.032 41.0746 178.817 41.0978 178.561 41.1044C178.111 41.1177 177.705 41.0497 177.343 40.9006C176.982 40.7481 176.695 40.5128 176.483 40.1946C176.275 39.8764 176.172 39.4787 176.175 39.0014V31.5341ZM183.738 41.1342C183.138 41.1342 182.601 40.9801 182.127 40.6719C181.653 40.3636 181.279 39.9162 181.004 39.3295C180.729 38.7429 180.591 38.0303 180.591 37.1918C180.591 36.3433 180.73 35.6274 181.009 35.044C181.29 34.4574 181.67 34.0149 182.147 33.7166C182.625 33.415 183.156 33.2642 183.743 33.2642C184.191 33.2642 184.558 33.3404 184.847 33.4929C185.135 33.642 185.364 33.8227 185.533 34.0348C185.702 34.2436 185.833 34.4408 185.926 34.6264H186V33.3636H187.805V41H186.035V39.7969H185.926C185.833 39.9825 185.699 40.1797 185.523 40.3885C185.347 40.594 185.115 40.7696 184.827 40.9155C184.539 41.0613 184.176 41.1342 183.738 41.1342ZM184.24 39.6577C184.621 39.6577 184.946 39.5549 185.215 39.3494C185.483 39.1406 185.687 38.8506 185.826 38.4794C185.965 38.1082 186.035 37.6757 186.035 37.1818C186.035 36.688 185.965 36.2588 185.826 35.8942C185.69 35.5296 185.488 35.2462 185.22 35.044C184.955 34.8419 184.628 34.7408 184.24 34.7408C183.839 34.7408 183.504 34.8452 183.236 35.054C182.968 35.2628 182.765 35.5511 182.629 35.919C182.494 36.2869 182.426 36.7079 182.426 37.1818C182.426 37.6591 182.494 38.085 182.629 38.4595C182.769 38.8307 182.973 39.1241 183.241 39.3395C183.513 39.5516 183.846 39.6577 184.24 39.6577Z" fill="#121127" fill-opacity="0.8"/>
<line x1="81.8566" y1="40.5" x2="81.8566" y2="15.5" stroke="#121127" stroke-opacity="0.8" stroke-width="3" stroke-linecap="square"/>
<defs>
<filter id="filter0_d_1876_195" x="0.191101" y="8" width="88.461" height="58.4283" filterUnits="userSpaceOnUse" color-interpolation-filters="sRGB">
<feFlood flood-opacity="0" result="BackgroundImageFix"/>
<feColorMatrix in="SourceAlpha" type="matrix" values="0 0 0 0 0 0 0 0 0 0 0 0 0 0 0 0 0 0 127 0" result="hardAlpha"/>
<feOffset dx="10" dy="10"/>
<feGaussianBlur stdDeviation="2"/>
<feComposite in2="hardAlpha" operator="out"/>
<feColorMatrix type="matrix" values="0 0 0 0 0 0 0 0 0 0 0 0 0 0 0 0 0 0 0.1 0"/>
<feBlend mode="normal" in2="BackgroundImageFix" result="effect1_dropShadow_1876_195"/>
<feBlend mode="normal" in="SourceGraphic" in2="effect1_dropShadow_1876_195" result="shape"/>
</filter>
</defs>
</svg>
