<svg width="40" height="40" viewBox="0 0 40 40" fill="none" xmlns="http://www.w3.org/2000/svg">
<path d="M19.1546 3.33334C23.2922 3.33334 26.6667 6.65001 26.6667 10.7333V18.7167H16.4923C15.7631 18.7167 15.1866 19.2833 15.1866 20C15.1866 20.7 15.7631 21.2833 16.4923 21.2833H26.6667V29.25C26.6667 33.3333 23.2922 36.6667 19.1207 36.6667H10.8624C6.70789 36.6667 3.33337 33.35 3.33337 29.2667V10.75C3.33337 6.65001 6.72485 3.33334 10.8794 3.33334H19.1546ZM30.9004 14.2503C31.4004 13.7337 32.217 13.7337 32.717 14.2337L37.5837 19.0837C37.8337 19.3337 37.967 19.6503 37.967 20.0003C37.967 20.3337 37.8337 20.667 37.5837 20.9003L32.717 25.7503C32.467 26.0003 32.1337 26.1337 31.817 26.1337C31.4837 26.1337 31.1504 26.0003 30.9004 25.7503C30.4004 25.2503 30.4004 24.4337 30.9004 23.9337L33.567 21.2837H26.667V18.717H33.567L30.9004 16.067C30.4004 15.567 30.4004 14.7503 30.9004 14.2503Z" fill="#121127" fill-opacity="0.12"/>
</svg>
