<svg width="237" height="80" viewBox="0 0 237 80" fill="none" xmlns="http://www.w3.org/2000/svg">
<g filter="url(#filter0_d_2008_1404)">
<path d="M26.7666 36H23.9805L23.998 33.9434H26.7666C27.458 33.9434 28.041 33.7881 28.5156 33.4775C28.9902 33.1611 29.3477 32.7012 29.5879 32.0977C29.834 31.4941 29.957 30.7646 29.957 29.9092V29.2852C29.957 28.6289 29.8867 28.0518 29.7461 27.5537C29.6113 27.0557 29.4092 26.6367 29.1396 26.2969C28.8701 25.957 28.5391 25.7021 28.1465 25.5322C27.7539 25.3564 27.3027 25.2686 26.793 25.2686H23.9277V23.2031H26.793C27.6484 23.2031 28.4307 23.3496 29.1396 23.6426C29.8545 23.9297 30.4727 24.3428 30.9941 24.8818C31.5156 25.4209 31.917 26.0654 32.1982 26.8154C32.4854 27.5596 32.6289 28.3887 32.6289 29.3027V29.9092C32.6289 30.8174 32.4854 31.6465 32.1982 32.3965C31.917 33.1465 31.5156 33.791 30.9941 34.3301C30.4785 34.8633 29.8604 35.2764 29.1396 35.5693C28.4248 35.8564 27.6338 36 26.7666 36ZM25.4746 23.2031V36H22.8379V23.2031H25.4746ZM35.9086 23.2031V36H33.2807V23.2031H35.9086ZM47.0809 29.3115V34.3828C46.8817 34.623 46.5741 34.8838 46.1581 35.165C45.7421 35.4404 45.2059 35.6777 44.5497 35.877C43.8934 36.0762 43.0995 36.1758 42.1679 36.1758C41.3417 36.1758 40.5887 36.041 39.9091 35.7715C39.2294 35.4961 38.6434 35.0947 38.1512 34.5674C37.6649 34.04 37.2899 33.3955 37.0262 32.6338C36.7626 31.8662 36.6307 30.9902 36.6307 30.0059V29.2061C36.6307 28.2217 36.7567 27.3457 37.0087 26.5781C37.2665 25.8105 37.6327 25.1631 38.1073 24.6357C38.5819 24.1084 39.1473 23.707 39.8036 23.4316C40.4598 23.1562 41.1893 23.0186 41.9921 23.0186C43.1054 23.0186 44.0194 23.2002 44.7343 23.5635C45.4491 23.9209 45.994 24.4189 46.369 25.0576C46.7499 25.6904 46.9843 26.417 47.0721 27.2373H44.5145C44.4501 26.8037 44.327 26.4258 44.1454 26.1035C43.9637 25.7812 43.703 25.5293 43.3632 25.3477C43.0292 25.166 42.5956 25.0752 42.0624 25.0752C41.6229 25.0752 41.2304 25.166 40.8846 25.3477C40.5448 25.5234 40.2577 25.7842 40.0233 26.1299C39.7889 26.4756 39.6102 26.9033 39.4872 27.4131C39.3641 27.9229 39.3026 28.5146 39.3026 29.1885V30.0059C39.3026 30.6738 39.3671 31.2656 39.496 31.7812C39.6249 32.291 39.8153 32.7217 40.0673 33.0732C40.3251 33.4189 40.6415 33.6797 41.0165 33.8555C41.3915 34.0312 41.828 34.1191 42.3261 34.1191C42.7421 34.1191 43.0878 34.084 43.3632 34.0137C43.6444 33.9434 43.87 33.8584 44.0399 33.7588C44.2157 33.6533 44.3505 33.5537 44.4442 33.46V31.1924H42.036V29.3115H47.0809ZM50.5716 23.2031V36H47.9437V23.2031H50.5716ZM57.0593 23.2031V36H54.4314V23.2031H57.0593ZM60.9968 23.2031V25.2686H50.5554V23.2031H60.9968ZM65.3137 25.3916L61.8332 36H59.0295L63.7844 23.2031H65.5686L65.3137 25.3916ZM68.2053 36L64.716 25.3916L64.4348 23.2031H66.2365L71.0178 36H68.2053ZM68.0471 31.2363V33.3018H61.2883V31.2363H68.0471ZM78.9909 33.9434V36H72.5485V33.9434H78.9909ZM73.401 23.2031V36H70.7643V23.2031H73.401Z" fill="white"/>
<path d="M0.344727 10H31.6956L14.7139 28.1389L0.344727 42.0098V10Z" fill="#0773C4"/>
<path d="M18.6328 23.8708L13.2554 65.5354L7.76274 52.8281L0.238898 41.6983L18.6328 23.8708Z" fill="#22376E"/>
</g>
<path d="M107.7 25V14.8182H109.499V18.6264H109.574C109.667 18.4408 109.798 18.2436 109.967 18.0348C110.136 17.8227 110.364 17.642 110.653 17.4929C110.941 17.3404 111.309 17.2642 111.756 17.2642C112.346 17.2642 112.878 17.415 113.352 17.7166C113.83 18.0149 114.207 18.4574 114.486 19.044C114.768 19.6274 114.908 20.3433 114.908 21.1918C114.908 22.0303 114.771 22.7429 114.496 23.3295C114.221 23.9162 113.846 24.3636 113.372 24.6719C112.898 24.9801 112.361 25.1342 111.761 25.1342C111.324 25.1342 110.961 25.0613 110.673 24.9155C110.384 24.7696 110.152 24.594 109.977 24.3885C109.804 24.1797 109.67 23.9825 109.574 23.7969H109.469V25H107.7ZM109.464 21.1818C109.464 21.6757 109.534 22.1082 109.673 22.4794C109.816 22.8506 110.02 23.1406 110.285 23.3494C110.553 23.5549 110.878 23.6577 111.259 23.6577C111.657 23.6577 111.99 23.5516 112.259 23.3395C112.527 23.1241 112.729 22.8307 112.865 22.4595C113.004 22.085 113.074 21.6591 113.074 21.1818C113.074 20.7079 113.006 20.2869 112.87 19.919C112.734 19.5511 112.532 19.2628 112.263 19.054C111.995 18.8452 111.66 18.7408 111.259 18.7408C110.875 18.7408 110.548 18.8419 110.28 19.044C110.011 19.2462 109.808 19.5296 109.668 19.8942C109.532 20.2588 109.464 20.688 109.464 21.1818ZM116.438 25V17.3636H118.238V25H116.438ZM117.343 16.2798C117.058 16.2798 116.813 16.1854 116.607 15.9964C116.402 15.8042 116.299 15.5739 116.299 15.3054C116.299 15.0336 116.402 14.8033 116.607 14.6143C116.813 14.4221 117.058 14.326 117.343 14.326C117.632 14.326 117.877 14.4221 118.079 14.6143C118.285 14.8033 118.387 15.0336 118.387 15.3054C118.387 15.5739 118.285 15.8042 118.079 15.9964C117.877 16.1854 117.632 16.2798 117.343 16.2798ZM120.089 25V17.3636H121.834V18.6364H121.913C122.053 18.1955 122.291 17.8558 122.629 17.6172C122.967 17.3752 123.357 17.2543 123.798 17.2543C124.003 17.2543 124.192 17.2791 124.364 17.3288C124.537 17.3786 124.689 17.4465 124.822 17.5327L124.265 19.0241C124.169 18.9777 124.063 18.9396 123.947 18.9098C123.831 18.88 123.7 18.8651 123.554 18.8651C123.242 18.8651 122.961 18.9347 122.709 19.0739C122.457 19.2131 122.256 19.407 122.107 19.6555C121.961 19.9008 121.888 20.1858 121.888 20.5107V25H120.089ZM130.041 17.3636V18.7557H125.651V17.3636H130.041ZM126.735 15.5341H128.534V22.7031C128.534 22.9451 128.571 23.1307 128.644 23.2599C128.72 23.3859 128.819 23.4721 128.942 23.5185C129.065 23.5649 129.2 23.5881 129.35 23.5881C129.462 23.5881 129.565 23.5798 129.658 23.5632C129.754 23.5466 129.827 23.5317 129.877 23.5185L130.18 24.9254C130.084 24.9586 129.946 24.995 129.767 25.0348C129.592 25.0746 129.376 25.0978 129.121 25.1044C128.67 25.1177 128.264 25.0497 127.903 24.9006C127.542 24.7481 127.255 24.5128 127.043 24.1946C126.834 23.8764 126.731 23.4787 126.735 23.0014V15.5341ZM133.51 20.5256V25H131.71V14.8182H133.47V18.6612H133.559C133.738 18.2304 134.015 17.8906 134.39 17.642C134.767 17.3902 135.248 17.2642 135.831 17.2642C136.362 17.2642 136.824 17.3752 137.218 17.5973C137.613 17.8194 137.918 18.1442 138.133 18.5717C138.352 18.9993 138.461 19.5213 138.461 20.1378V25H136.662V20.4162C136.662 19.9025 136.529 19.5031 136.264 19.218C136.002 18.9297 135.634 18.7855 135.16 18.7855C134.842 18.7855 134.557 18.8551 134.305 18.9943C134.056 19.1302 133.861 19.3274 133.718 19.5859C133.579 19.8445 133.51 20.1577 133.51 20.5256ZM144.452 14.3409L141.171 26.5312H139.595L142.876 14.3409H144.452ZM148.434 25.1342C147.834 25.1342 147.297 24.9801 146.824 24.6719C146.35 24.3636 145.975 23.9162 145.7 23.3295C145.425 22.7429 145.287 22.0303 145.287 21.1918C145.287 20.3433 145.426 19.6274 145.705 19.044C145.987 18.4574 146.366 18.0149 146.843 17.7166C147.321 17.415 147.853 17.2642 148.439 17.2642C148.887 17.2642 149.255 17.3404 149.543 17.4929C149.831 17.642 150.06 17.8227 150.229 18.0348C150.398 18.2436 150.529 18.4408 150.622 18.6264H150.696V14.8182H152.501V25H150.731V23.7969H150.622C150.529 23.9825 150.395 24.1797 150.219 24.3885C150.043 24.594 149.811 24.7696 149.523 24.9155C149.235 25.0613 148.872 25.1342 148.434 25.1342ZM148.936 23.6577C149.318 23.6577 149.642 23.5549 149.911 23.3494C150.179 23.1406 150.383 22.8506 150.522 22.4794C150.662 22.1082 150.731 21.6757 150.731 21.1818C150.731 20.688 150.662 20.2588 150.522 19.8942C150.386 19.5296 150.184 19.2462 149.916 19.044C149.651 18.8419 149.324 18.7408 148.936 18.7408C148.535 18.7408 148.201 18.8452 147.932 19.054C147.664 19.2628 147.462 19.5511 147.326 19.919C147.19 20.2869 147.122 20.7079 147.122 21.1818C147.122 21.6591 147.19 22.085 147.326 22.4595C147.465 22.8307 147.669 23.1241 147.937 23.3395C148.209 23.5516 148.542 23.6577 148.936 23.6577ZM157.8 25.1491C157.034 25.1491 156.373 24.9901 155.816 24.6719C155.262 24.3504 154.836 23.8963 154.538 23.3097C154.24 22.7197 154.091 22.0253 154.091 21.2266C154.091 20.4411 154.24 19.7517 154.538 19.1584C154.84 18.5618 155.261 18.0978 155.801 17.7663C156.341 17.4316 156.976 17.2642 157.705 17.2642C158.176 17.2642 158.62 17.3404 159.037 17.4929C159.458 17.642 159.83 17.8741 160.151 18.1889C160.476 18.5038 160.731 18.9048 160.917 19.392C161.102 19.8759 161.195 20.4527 161.195 21.1222V21.674H154.936V20.4609H159.47C159.467 20.1162 159.392 19.8097 159.246 19.5412C159.1 19.2694 158.897 19.0556 158.635 18.8999C158.376 18.7441 158.075 18.6662 157.73 18.6662C157.362 18.6662 157.039 18.7557 156.76 18.9347C156.482 19.1103 156.265 19.3423 156.109 19.6307C155.957 19.9157 155.879 20.2289 155.876 20.5703V21.6293C155.876 22.0734 155.957 22.4545 156.119 22.7727C156.282 23.0876 156.509 23.3295 156.8 23.4986C157.092 23.6643 157.433 23.7472 157.824 23.7472C158.086 23.7472 158.323 23.7107 158.535 23.6378C158.747 23.5616 158.931 23.4505 159.087 23.3047C159.243 23.1589 159.361 22.9782 159.44 22.7628L161.121 22.9517C161.015 23.3958 160.812 23.7836 160.514 24.1151C160.219 24.4432 159.841 24.6984 159.381 24.8807C158.92 25.0597 158.393 25.1491 157.8 25.1491ZM165.551 25.1342C164.952 25.1342 164.415 24.9801 163.941 24.6719C163.467 24.3636 163.092 23.9162 162.817 23.3295C162.542 22.7429 162.404 22.0303 162.404 21.1918C162.404 20.3433 162.544 19.6274 162.822 19.044C163.104 18.4574 163.483 18.0149 163.961 17.7166C164.438 17.415 164.97 17.2642 165.556 17.2642C166.004 17.2642 166.372 17.3404 166.66 17.4929C166.949 17.642 167.177 17.8227 167.346 18.0348C167.515 18.2436 167.646 18.4408 167.739 18.6264H167.814V17.3636H169.618V25H167.848V23.7969H167.739C167.646 23.9825 167.512 24.1797 167.336 24.3885C167.161 24.594 166.929 24.7696 166.64 24.9155C166.352 25.0613 165.989 25.1342 165.551 25.1342ZM166.054 23.6577C166.435 23.6577 166.76 23.5549 167.028 23.3494C167.297 23.1406 167.5 22.8506 167.64 22.4794C167.779 22.1082 167.848 21.6757 167.848 21.1818C167.848 20.688 167.779 20.2588 167.64 19.8942C167.504 19.5296 167.301 19.2462 167.033 19.044C166.768 18.8419 166.441 18.7408 166.054 18.7408C165.653 18.7408 165.318 18.8452 165.049 19.054C164.781 19.2628 164.579 19.5511 164.443 19.919C164.307 20.2869 164.239 20.7079 164.239 21.1818C164.239 21.6591 164.307 22.085 164.443 22.4595C164.582 22.8307 164.786 23.1241 165.054 23.3395C165.326 23.5516 165.659 23.6577 166.054 23.6577ZM175.349 17.3636V18.7557H170.959V17.3636H175.349ZM172.043 15.5341H173.843V22.7031C173.843 22.9451 173.879 23.1307 173.952 23.2599C174.028 23.3859 174.128 23.4721 174.251 23.5185C174.373 23.5649 174.509 23.5881 174.658 23.5881C174.771 23.5881 174.874 23.5798 174.966 23.5632C175.063 23.5466 175.135 23.5317 175.185 23.5185L175.488 24.9254C175.392 24.9586 175.255 24.995 175.076 25.0348C174.9 25.0746 174.685 25.0978 174.43 25.1044C173.979 25.1177 173.573 25.0497 173.211 24.9006C172.85 24.7481 172.564 24.5128 172.351 24.1946C172.143 23.8764 172.04 23.4787 172.043 23.0014V15.5341ZM178.818 20.5256V25H177.018V14.8182H178.778V18.6612H178.868C179.047 18.2304 179.324 17.8906 179.698 17.642C180.076 17.3902 180.557 17.2642 181.14 17.2642C181.67 17.2642 182.133 17.3752 182.527 17.5973C182.921 17.8194 183.226 18.1442 183.442 18.5717C183.661 18.9993 183.77 19.5213 183.77 20.1378V25H181.97V20.4162C181.97 19.9025 181.838 19.5031 181.572 19.218C181.311 18.9297 180.943 18.7855 180.469 18.7855C180.151 18.7855 179.866 18.8551 179.614 18.9943C179.365 19.1302 179.17 19.3274 179.027 19.5859C178.888 19.8445 178.818 20.1577 178.818 20.5256Z" fill="white"/>
<path d="M113.656 39.3821L112.015 39.5611C111.969 39.3954 111.887 39.2396 111.771 39.0938C111.659 38.9479 111.506 38.8303 111.314 38.7408C111.122 38.6513 110.886 38.6065 110.608 38.6065C110.233 38.6065 109.919 38.6877 109.663 38.8501C109.411 39.0125 109.287 39.223 109.29 39.4815C109.287 39.7036 109.368 39.8842 109.534 40.0234C109.703 40.1626 109.982 40.277 110.369 40.3665L111.672 40.6449C112.394 40.8007 112.931 41.0476 113.283 41.3857C113.637 41.7237 113.816 42.1662 113.82 42.7131C113.816 43.1937 113.675 43.6179 113.397 43.9858C113.122 44.3504 112.739 44.6354 112.249 44.8409C111.758 45.0464 111.195 45.1491 110.558 45.1491C109.624 45.1491 108.871 44.9536 108.301 44.5625C107.731 44.1681 107.391 43.6196 107.282 42.9169L109.037 42.7479C109.116 43.0926 109.286 43.3527 109.544 43.5284C109.803 43.7041 110.139 43.7919 110.553 43.7919C110.981 43.7919 111.324 43.7041 111.582 43.5284C111.844 43.3527 111.975 43.1357 111.975 42.8771C111.975 42.6584 111.891 42.4777 111.722 42.3352C111.556 42.1927 111.297 42.0833 110.946 42.0071L109.643 41.7337C108.911 41.5812 108.369 41.3243 108.018 40.9631C107.666 40.5985 107.492 40.1378 107.496 39.581C107.492 39.1103 107.62 38.7027 107.879 38.358C108.14 38.0099 108.503 37.7415 108.967 37.5526C109.435 37.3603 109.973 37.2642 110.583 37.2642C111.478 37.2642 112.182 37.4548 112.696 37.8359C113.213 38.2171 113.533 38.7325 113.656 39.3821ZM119.117 37.3636V38.7557H114.727V37.3636H119.117ZM115.811 35.5341H117.61V42.7031C117.61 42.9451 117.647 43.1307 117.72 43.2599C117.796 43.3859 117.895 43.4721 118.018 43.5185C118.141 43.5649 118.277 43.5881 118.426 43.5881C118.538 43.5881 118.641 43.5798 118.734 43.5632C118.83 43.5466 118.903 43.5317 118.953 43.5185L119.256 44.9254C119.16 44.9586 119.022 44.995 118.843 45.0348C118.668 45.0746 118.452 45.0978 118.197 45.1044C117.746 45.1177 117.34 45.0497 116.979 44.9006C116.618 44.7481 116.331 44.5128 116.119 44.1946C115.91 43.8764 115.807 43.4787 115.811 43.0014V35.5341ZM123.374 45.1342C122.774 45.1342 122.237 44.9801 121.763 44.6719C121.289 44.3636 120.914 43.9162 120.639 43.3295C120.364 42.7429 120.227 42.0303 120.227 41.1918C120.227 40.3433 120.366 39.6274 120.644 39.044C120.926 38.4574 121.306 38.0149 121.783 37.7166C122.26 37.415 122.792 37.2642 123.379 37.2642C123.826 37.2642 124.194 37.3404 124.482 37.4929C124.771 37.642 124.999 37.8227 125.169 38.0348C125.338 38.2436 125.468 38.4408 125.561 38.6264H125.636V37.3636H127.441V45H125.671V43.7969H125.561C125.468 43.9825 125.334 44.1797 125.159 44.3885C124.983 44.594 124.751 44.7696 124.463 44.9155C124.174 45.0613 123.811 45.1342 123.374 45.1342ZM123.876 43.6577C124.257 43.6577 124.582 43.5549 124.85 43.3494C125.119 43.1406 125.323 42.8506 125.462 42.4794C125.601 42.1082 125.671 41.6757 125.671 41.1818C125.671 40.688 125.601 40.2588 125.462 39.8942C125.326 39.5296 125.124 39.2462 124.855 39.044C124.59 38.8419 124.264 38.7408 123.876 38.7408C123.475 38.7408 123.14 38.8452 122.872 39.054C122.603 39.2628 122.401 39.5511 122.265 39.919C122.129 40.2869 122.061 40.7079 122.061 41.1818C122.061 41.6591 122.129 42.085 122.265 42.4595C122.404 42.8307 122.608 43.1241 122.877 43.3395C123.148 43.5516 123.481 43.6577 123.876 43.6577ZM133.172 37.3636V38.7557H128.782V37.3636H133.172ZM129.865 35.5341H131.665V42.7031C131.665 42.9451 131.702 43.1307 131.775 43.2599C131.851 43.3859 131.95 43.4721 132.073 43.5185C132.195 43.5649 132.331 43.5881 132.48 43.5881C132.593 43.5881 132.696 43.5798 132.789 43.5632C132.885 43.5466 132.958 43.5317 133.007 43.5185L133.311 44.9254C133.215 44.9586 133.077 44.995 132.898 45.0348C132.722 45.0746 132.507 45.0978 132.252 45.1044C131.801 45.1177 131.395 45.0497 131.034 44.9006C130.672 44.7481 130.386 44.5128 130.174 44.1946C129.965 43.8764 129.862 43.4787 129.865 43.0014V35.5341ZM134.677 45V37.3636H136.476V45H134.677ZM135.581 36.2798C135.296 36.2798 135.051 36.1854 134.846 35.9964C134.64 35.8042 134.537 35.5739 134.537 35.3054C134.537 35.0336 134.64 34.8033 134.846 34.6143C135.051 34.4221 135.296 34.326 135.581 34.326C135.87 34.326 136.115 34.4221 136.317 34.6143C136.523 34.8033 136.626 35.0336 136.626 35.3054C136.626 35.5739 136.523 35.8042 136.317 35.9964C136.115 36.1854 135.87 36.2798 135.581 36.2798ZM144.363 39.3821L142.722 39.5611C142.676 39.3954 142.594 39.2396 142.478 39.0938C142.366 38.9479 142.213 38.8303 142.021 38.7408C141.829 38.6513 141.593 38.6065 141.315 38.6065C140.94 38.6065 140.626 38.6877 140.37 38.8501C140.118 39.0125 139.994 39.223 139.998 39.4815C139.994 39.7036 140.075 39.8842 140.241 40.0234C140.41 40.1626 140.689 40.277 141.076 40.3665L142.379 40.6449C143.101 40.8007 143.638 41.0476 143.99 41.3857C144.344 41.7237 144.523 42.1662 144.527 42.7131C144.523 43.1937 144.382 43.6179 144.104 43.9858C143.829 44.3504 143.446 44.6354 142.956 44.8409C142.465 45.0464 141.902 45.1491 141.265 45.1491C140.331 45.1491 139.578 44.9536 139.008 44.5625C138.438 44.1681 138.098 43.6196 137.989 42.9169L139.744 42.7479C139.824 43.0926 139.993 43.3527 140.251 43.5284C140.51 43.7041 140.846 43.7919 141.26 43.7919C141.688 43.7919 142.031 43.7041 142.289 43.5284C142.551 43.3527 142.682 43.1357 142.682 42.8771C142.682 42.6584 142.598 42.4777 142.429 42.3352C142.263 42.1927 142.004 42.0833 141.653 42.0071L140.35 41.7337C139.618 41.5812 139.076 41.3243 138.725 40.9631C138.373 40.5985 138.199 40.1378 138.203 39.581C138.199 39.1103 138.327 38.7027 138.586 38.358C138.847 38.0099 139.21 37.7415 139.674 37.5526C140.142 37.3603 140.68 37.2642 141.29 37.2642C142.185 37.2642 142.889 37.4548 143.403 37.8359C143.92 38.2171 144.24 38.7325 144.363 39.3821ZM149.824 37.3636V38.7557H145.434V37.3636H149.824ZM146.518 35.5341H148.317V42.7031C148.317 42.9451 148.354 43.1307 148.427 43.2599C148.503 43.3859 148.603 43.4721 148.725 43.5185C148.848 43.5649 148.984 43.5881 149.133 43.5881C149.246 43.5881 149.348 43.5798 149.441 43.5632C149.537 43.5466 149.61 43.5317 149.66 43.5185L149.963 44.9254C149.867 44.9586 149.729 44.995 149.55 45.0348C149.375 45.0746 149.159 45.0978 148.904 45.1044C148.453 45.1177 148.047 45.0497 147.686 44.9006C147.325 44.7481 147.038 44.5128 146.826 44.1946C146.617 43.8764 146.514 43.4787 146.518 43.0014V35.5341ZM151.329 45V37.3636H153.129V45H151.329ZM152.234 36.2798C151.949 36.2798 151.704 36.1854 151.498 35.9964C151.293 35.8042 151.19 35.5739 151.19 35.3054C151.19 35.0336 151.293 34.8033 151.498 34.6143C151.704 34.4221 151.949 34.326 152.234 34.326C152.522 34.326 152.767 34.4221 152.97 34.6143C153.175 34.8033 153.278 35.0336 153.278 35.3054C153.278 35.5739 153.175 35.8042 152.97 35.9964C152.767 36.1854 152.522 36.2798 152.234 36.2798ZM158.31 45.1491C157.548 45.1491 156.893 44.9818 156.347 44.647C155.803 44.3123 155.384 43.8499 155.089 43.2599C154.797 42.6667 154.651 41.9839 154.651 41.2116C154.651 40.4361 154.8 39.7517 155.099 39.1584C155.397 38.5618 155.818 38.0978 156.362 37.7663C156.908 37.4316 157.555 37.2642 158.3 37.2642C158.92 37.2642 159.469 37.3786 159.946 37.6072C160.427 37.8326 160.809 38.1525 161.094 38.5668C161.379 38.9777 161.542 39.4583 161.582 40.0085H159.862C159.792 39.6406 159.626 39.334 159.364 39.0888C159.106 38.8402 158.759 38.7159 158.325 38.7159C157.957 38.7159 157.634 38.8153 157.356 39.0142C157.077 39.2098 156.86 39.4915 156.705 39.8594C156.552 40.2273 156.476 40.6681 156.476 41.1818C156.476 41.7022 156.552 42.1496 156.705 42.5241C156.857 42.8954 157.071 43.1821 157.346 43.3842C157.624 43.5831 157.951 43.6825 158.325 43.6825C158.59 43.6825 158.827 43.6328 159.036 43.5334C159.248 43.4306 159.426 43.2831 159.568 43.0909C159.711 42.8987 159.808 42.665 159.862 42.3899H161.582C161.539 42.9302 161.379 43.4091 161.104 43.8267C160.829 44.241 160.455 44.5658 159.981 44.8011C159.507 45.0331 158.95 45.1491 158.31 45.1491ZM165.893 45.1342C165.293 45.1342 164.756 44.9801 164.282 44.6719C163.809 44.3636 163.434 43.9162 163.159 43.3295C162.884 42.7429 162.746 42.0303 162.746 41.1918C162.746 40.3433 162.885 39.6274 163.164 39.044C163.446 38.4574 163.825 38.0149 164.302 37.7166C164.78 37.415 165.312 37.2642 165.898 37.2642C166.346 37.2642 166.714 37.3404 167.002 37.4929C167.29 37.642 167.519 37.8227 167.688 38.0348C167.857 38.2436 167.988 38.4408 168.081 38.6264H168.155V37.3636H169.96V45H168.19V43.7969H168.081C167.988 43.9825 167.854 44.1797 167.678 44.3885C167.502 44.594 167.27 44.7696 166.982 44.9155C166.694 45.0613 166.331 45.1342 165.893 45.1342ZM166.395 43.6577C166.777 43.6577 167.101 43.5549 167.37 43.3494C167.638 43.1406 167.842 42.8506 167.981 42.4794C168.121 42.1082 168.19 41.6757 168.19 41.1818C168.19 40.688 168.121 40.2588 167.981 39.8942C167.845 39.5296 167.643 39.2462 167.375 39.044C167.11 38.8419 166.783 38.7408 166.395 38.7408C165.994 38.7408 165.66 38.8452 165.391 39.054C165.123 39.2628 164.921 39.5511 164.785 39.919C164.649 40.2869 164.581 40.7079 164.581 41.1818C164.581 41.6591 164.649 42.085 164.785 42.4595C164.924 42.8307 165.128 43.1241 165.396 43.3395C165.668 43.5516 166.001 43.6577 166.395 43.6577ZM171.878 34.8182H173.678V42.8125C173.678 43.0975 173.721 43.3014 173.807 43.424C173.893 43.5466 174.045 43.6046 174.264 43.598C174.384 43.5947 174.473 43.5881 174.533 43.5781C174.596 43.5649 174.652 43.5516 174.702 43.5384L175 44.9006C174.894 44.9337 174.761 44.9652 174.602 44.995C174.446 45.0249 174.254 45.0431 174.026 45.0497C173.296 45.0696 172.756 44.9171 172.405 44.5923C172.054 44.2675 171.878 43.772 171.878 43.1058V34.8182ZM182.204 45.1342C181.604 45.1342 181.067 44.9801 180.593 44.6719C180.119 44.3636 179.745 43.9162 179.469 43.3295C179.194 42.7429 179.057 42.0303 179.057 41.1918C179.057 40.3433 179.196 39.6274 179.474 39.044C179.756 38.4574 180.136 38.0149 180.613 37.7166C181.09 37.415 181.622 37.2642 182.209 37.2642C182.656 37.2642 183.024 37.3404 183.312 37.4929C183.601 37.642 183.83 37.8227 183.999 38.0348C184.168 38.2436 184.299 38.4408 184.391 38.6264H184.466V34.8182H186.271V45H184.501V43.7969H184.391C184.299 43.9825 184.164 44.1797 183.989 44.3885C183.813 44.594 183.581 44.7696 183.293 44.9155C183.004 45.0613 182.641 45.1342 182.204 45.1342ZM182.706 43.6577C183.087 43.6577 183.412 43.5549 183.68 43.3494C183.949 43.1406 184.153 42.8506 184.292 42.4794C184.431 42.1082 184.501 41.6757 184.501 41.1818C184.501 40.688 184.431 40.2588 184.292 39.8942C184.156 39.5296 183.954 39.2462 183.685 39.044C183.42 38.8419 183.094 38.7408 182.706 38.7408C182.305 38.7408 181.97 38.8452 181.702 39.054C181.433 39.2628 181.231 39.5511 181.095 39.919C180.959 40.2869 180.891 40.7079 180.891 41.1818C180.891 41.6591 180.959 42.085 181.095 42.4595C181.234 42.8307 181.438 43.1241 181.707 43.3395C181.978 43.5516 182.312 43.6577 182.706 43.6577ZM191.022 45.1342C190.422 45.1342 189.885 44.9801 189.411 44.6719C188.937 44.3636 188.563 43.9162 188.288 43.3295C188.013 42.7429 187.875 42.0303 187.875 41.1918C187.875 40.3433 188.014 39.6274 188.293 39.044C188.575 38.4574 188.954 38.0149 189.431 37.7166C189.909 37.415 190.441 37.2642 191.027 37.2642C191.475 37.2642 191.843 37.3404 192.131 37.4929C192.419 37.642 192.648 37.8227 192.817 38.0348C192.986 38.2436 193.117 38.4408 193.21 38.6264H193.284V37.3636H195.089V45H193.319V43.7969H193.21C193.117 43.9825 192.983 44.1797 192.807 44.3885C192.631 44.594 192.399 44.7696 192.111 44.9155C191.823 45.0613 191.46 45.1342 191.022 45.1342ZM191.524 43.6577C191.905 43.6577 192.23 43.5549 192.499 43.3494C192.767 43.1406 192.971 42.8506 193.11 42.4794C193.249 42.1082 193.319 41.6757 193.319 41.1818C193.319 40.688 193.249 40.2588 193.11 39.8942C192.974 39.5296 192.772 39.2462 192.504 39.044C192.239 38.8419 191.912 38.7408 191.524 38.7408C191.123 38.7408 190.789 38.8452 190.52 39.054C190.252 39.2628 190.049 39.5511 189.914 39.919C189.778 40.2869 189.71 40.7079 189.71 41.1818C189.71 41.6591 189.778 42.085 189.914 42.4595C190.053 42.8307 190.257 43.1241 190.525 43.3395C190.797 43.5516 191.13 43.6577 191.524 43.6577ZM200.82 37.3636V38.7557H196.43V37.3636H200.82ZM197.514 35.5341H199.314V42.7031C199.314 42.9451 199.35 43.1307 199.423 43.2599C199.499 43.3859 199.599 43.4721 199.721 43.5185C199.844 43.5649 199.98 43.5881 200.129 43.5881C200.242 43.5881 200.344 43.5798 200.437 43.5632C200.533 43.5466 200.606 43.5317 200.656 43.5185L200.959 44.9254C200.863 44.9586 200.725 44.995 200.547 45.0348C200.371 45.0746 200.155 45.0978 199.9 45.1044C199.449 45.1177 199.043 45.0497 198.682 44.9006C198.321 44.7481 198.034 44.5128 197.822 44.1946C197.613 43.8764 197.511 43.4787 197.514 43.0014V35.5341ZM205.077 45.1342C204.477 45.1342 203.94 44.9801 203.466 44.6719C202.992 44.3636 202.618 43.9162 202.343 43.3295C202.067 42.7429 201.93 42.0303 201.93 41.1918C201.93 40.3433 202.069 39.6274 202.347 39.044C202.629 38.4574 203.009 38.0149 203.486 37.7166C203.963 37.415 204.495 37.2642 205.082 37.2642C205.529 37.2642 205.897 37.3404 206.186 37.4929C206.474 37.642 206.703 37.8227 206.872 38.0348C207.041 38.2436 207.172 38.4408 207.264 38.6264H207.339V37.3636H209.144V45H207.374V43.7969H207.264C207.172 43.9825 207.037 44.1797 206.862 44.3885C206.686 44.594 206.454 44.7696 206.166 44.9155C205.877 45.0613 205.514 45.1342 205.077 45.1342ZM205.579 43.6577C205.96 43.6577 206.285 43.5549 206.553 43.3494C206.822 43.1406 207.026 42.8506 207.165 42.4794C207.304 42.1082 207.374 41.6757 207.374 41.1818C207.374 40.688 207.304 40.2588 207.165 39.8942C207.029 39.5296 206.827 39.2462 206.558 39.044C206.293 38.8419 205.967 38.7408 205.579 38.7408C205.178 38.7408 204.843 38.8452 204.575 39.054C204.306 39.2628 204.104 39.5511 203.968 39.919C203.832 40.2869 203.764 40.7079 203.764 41.1818C203.764 41.6591 203.832 42.085 203.968 42.4595C204.107 42.8307 204.311 43.1241 204.58 43.3395C204.852 43.5516 205.185 43.6577 205.579 43.6577Z" fill="white"/>
<line x1="102.695" y1="51" x2="102.695" y2="19" stroke="white" stroke-width="3" stroke-linecap="square"/>
<defs>
<filter id="filter0_d_2008_1404" x="0.239258" y="10" width="92.752" height="69.5354" filterUnits="userSpaceOnUse" color-interpolation-filters="sRGB">
<feFlood flood-opacity="0" result="BackgroundImageFix"/>
<feColorMatrix in="SourceAlpha" type="matrix" values="0 0 0 0 0 0 0 0 0 0 0 0 0 0 0 0 0 0 127 0" result="hardAlpha"/>
<feOffset dx="10" dy="10"/>
<feGaussianBlur stdDeviation="2"/>
<feComposite in2="hardAlpha" operator="out"/>
<feColorMatrix type="matrix" values="0 0 0 0 0 0 0 0 0 0 0 0 0 0 0 0 0 0 0.1 0"/>
<feBlend mode="normal" in2="BackgroundImageFix" result="effect1_dropShadow_2008_1404"/>
<feBlend mode="normal" in="SourceGraphic" in2="effect1_dropShadow_2008_1404" result="shape"/>
</filter>
</defs>
</svg>
