<svg width="60" height="60" viewBox="0 0 60 60" fill="none" xmlns="http://www.w3.org/2000/svg">
<path d="M18.75 35.625H22.5V39.375H18.75V35.625Z" fill="white" fill-opacity="0.95"/>
<path d="M28.125 35.625H31.875V39.375H28.125V35.625Z" fill="white" fill-opacity="0.95"/>
<path d="M37.5 35.625H41.25V39.375H37.5V35.625Z" fill="white" fill-opacity="0.95"/>
<path d="M51.5625 54.375V10.3125H43.125V1.875H16.875V10.3125H8.4375V54.375H1.875V58.125H58.125V54.375H51.5625ZM20.625 5.625H39.375V24.375H20.625V5.625ZM47.8125 54.375H31.875V46.875H28.125V54.375H12.1875V14.0625H16.875V28.125H43.125V14.0625H47.8125V54.375Z" fill="white" fill-opacity="0.95"/>
<path d="M31.875 9.375H28.125V13.125H24.375V16.875H28.125V20.625H31.875V16.875H35.625V13.125H31.875V9.375Z" fill="white" fill-opacity="0.95"/>
</svg>
