<svg width="60" height="60" viewBox="0 0 60 60" fill="none" xmlns="http://www.w3.org/2000/svg">
<g clip-path="url(#clip0_2008_1402)">
<path d="M29.7831 -0.071538C29.6855 -0.0539147 29.5891 -0.030019 29.4946 4.99189e-07C28.9736 0.116774 28.5092 0.410593 28.1806 0.83139C27.8519 1.25219 27.6794 1.77392 27.6923 2.30769V4.61539H6.92308C5.08696 4.61539 3.32605 5.34478 2.02772 6.64311C0.729393 7.94144 0 9.70235 0 11.5385L0 41.5385C0 45.36 3.10154 48.4615 6.92308 48.4615H27.6923V49.3269L15.1431 55.6015C14.5886 55.8693 14.1631 56.3464 13.9604 56.9278C13.7576 57.5093 13.7942 58.1474 14.0619 58.7019C14.3297 59.2564 14.8068 59.6819 15.3882 59.8846C15.9696 60.0874 16.6078 60.0508 17.1623 59.7831L27.6923 54.5192V55.3846C27.6923 55.9967 27.9354 56.5836 28.3682 57.0164C28.801 57.4492 29.388 57.6923 30 57.6923C30.612 57.6923 31.199 57.4492 31.6318 57.0164C32.0646 56.5836 32.3077 55.9967 32.3077 55.3846V54.5192L42.8377 59.7831C43.3922 60.0508 44.0304 60.0874 44.6118 59.8846C45.1932 59.6819 45.6703 59.2564 45.9381 58.7019C46.2058 58.1474 46.2424 57.5093 46.0396 56.9278C45.8369 56.3464 45.4114 55.8693 44.8569 55.6015L32.3077 49.3269V48.4615H53.0769C56.8985 48.4615 60 45.36 60 41.5385V11.5385C60 9.70235 59.2706 7.94144 57.9723 6.64311C56.674 5.34478 54.913 4.61539 53.0769 4.61539H32.3077V2.30769C32.3193 1.97953 32.2608 1.65267 32.1361 1.34893C32.0113 1.04519 31.8231 0.771581 31.5842 0.546374C31.3452 0.321167 31.0609 0.149552 30.7503 0.0429937C30.4397 -0.0635643 30.11 -0.102611 29.7831 -0.071538ZM4.61538 11.5385H55.3846V41.5385H4.61538V11.5385ZM48.1731 13.8462C47.6562 13.9017 47.1731 14.1302 46.8023 14.4946L39.2308 22.0685L33.9669 16.8C33.7148 16.5413 33.4055 16.3455 33.0639 16.2281C32.7224 16.1108 32.358 16.0753 32.0002 16.1244C31.6423 16.1736 31.301 16.3061 31.0037 16.5112C30.7064 16.7163 30.4615 16.9883 30.2885 17.3054L23.4369 29.2777L20.6238 22.2092C20.4872 21.8443 20.2604 21.5198 19.9646 21.2662C19.6687 21.0126 19.3135 20.838 18.9319 20.7587C18.5504 20.6795 18.155 20.6981 17.7826 20.8129C17.4102 20.9278 17.073 21.135 16.8023 21.4154L9.87923 28.3385C9.43856 28.7788 9.19088 29.3762 9.19066 29.9992C9.19044 30.6222 9.43772 31.2197 9.87808 31.6604C10.3184 32.1011 10.9158 32.3487 11.5388 32.349C12.1618 32.3492 12.7593 32.1019 13.2 31.6615L17.5985 27.2631L20.9169 35.4831C21.0735 35.8953 21.345 36.2541 21.6992 36.5168C22.0534 36.7796 22.4754 36.9354 22.9154 36.9657C23.3553 36.9961 23.7948 36.8997 24.1817 36.6881C24.5686 36.4765 24.8867 36.1584 25.0985 35.7715L32.8154 22.2854L37.5738 27.0462C37.789 27.2688 38.0469 27.4458 38.3319 27.5667C38.617 27.6877 38.9234 27.75 39.2331 27.75C39.5427 27.75 39.8492 27.6877 40.1342 27.5667C40.4193 27.4458 40.6771 27.2688 40.8923 27.0462L50.1231 17.8154C50.4876 17.4779 50.7335 17.0318 50.8242 16.5434C50.915 16.0549 50.8456 15.5503 50.6266 15.1044C50.4075 14.6585 50.0505 14.2952 49.6084 14.0686C49.1664 13.8419 48.663 13.7639 48.1731 13.8462Z" fill="white" fill-opacity="0.9"/>
</g>
<defs>
<clipPath id="clip0_2008_1402">
<rect width="60" height="60" fill="white"/>
</clipPath>
</defs>
</svg>
